<?xml version="1.0" encoding="UTF-8" standalone="no"?>
<!DOCTYPE svg PUBLIC "-//W3C//DTD SVG 1.1//EN" "http://www.w3.org/Graphics/SVG/1.1/DTD/svg11.dtd">
<svg width="100%" height="100%" viewBox="0 0 64 64" version="1.1" xmlns="http://www.w3.org/2000/svg" xmlns:xlink="http://www.w3.org/1999/xlink" xml:space="preserve" xmlns:serif="http://www.serif.com/" style="fill-rule:evenodd;clip-rule:evenodd;stroke-linejoin:round;stroke-miterlimit:1.5;">
    <g transform="matrix(1,0,0,1,-524.215,-167.86)">
        <g id="Bullet-List" serif:id="Bullet List" transform="matrix(1,0,0,1,524.215,167.86)">
            <rect x="0" y="0" width="64" height="64" style="fill:none;"/>
            <g transform="matrix(3.23689,0,4.6015e-34,3.23689,-1105.12,-375.422)">
                <path d="M345.503,118.751C345.503,118.451 345.26,118.207 344.96,118.207L343.872,118.207C343.572,118.207 343.328,118.451 343.328,118.751L343.328,119.839C343.328,120.139 343.572,120.382 343.872,120.382L344.96,120.382C345.26,120.382 345.503,120.139 345.503,119.839L345.503,118.751Z" style="fill:rgb(39,39,39);"/>
            </g>
            <g transform="matrix(3.22694,0,0,3.22694,-1102.16,-353.152)">
                <path d="M345.503,118.751C345.503,118.451 345.26,118.207 344.96,118.207L343.872,118.207C343.572,118.207 343.328,118.451 343.328,118.751L343.328,119.839C343.328,120.139 343.572,120.382 343.872,120.382L344.96,120.382C345.26,120.382 345.503,120.139 345.503,119.839L345.503,118.751Z" style="fill:rgb(39,39,39);"/>
            </g>
            <g transform="matrix(3.22631,0,0,3.22631,-1101.94,-331.593)">
                <path d="M345.503,118.751C345.503,118.451 345.26,118.207 344.96,118.207L343.872,118.207C343.572,118.207 343.328,118.451 343.328,118.751L343.328,119.839C343.328,120.139 343.572,120.382 343.872,120.382L344.96,120.382C345.26,120.382 345.503,120.139 345.503,119.839L345.503,118.751Z" style="fill:rgb(39,39,39);"/>
            </g>
            <g transform="matrix(1.16249,0.00168099,0.00195411,1.25369,-252.62,-48.705)">
                <path d="M266.999,47.044L233.839,47.088" style="fill:none;stroke:rgb(39,39,39);stroke-width:4.3px;"/>
            </g>
            <g transform="matrix(1.16249,0.00168099,0.00195411,1.25369,-252.219,-6.13757)">
                <path d="M266.999,47.044L233.839,47.088" style="fill:none;stroke:rgb(39,39,39);stroke-width:4.3px;"/>
            </g>
            <g transform="matrix(1.16249,0.00168099,0.00195411,1.25369,-252.419,-27.6221)">
                <path d="M266.999,47.044L233.839,47.088" style="fill:none;stroke:rgb(39,39,39);stroke-width:4.3px;"/>
            </g>
        </g>
    </g>
</svg>
