<?xml version="1.0" encoding="UTF-8" standalone="no"?>
<!DOCTYPE svg PUBLIC "-//W3C//DTD SVG 1.1//EN" "http://www.w3.org/Graphics/SVG/1.1/DTD/svg11.dtd">
<svg width="100%" height="100%" viewBox="0 0 64 64" version="1.1" xmlns="http://www.w3.org/2000/svg" xmlns:xlink="http://www.w3.org/1999/xlink" xml:space="preserve" xmlns:serif="http://www.serif.com/" style="fill-rule:evenodd;clip-rule:evenodd;stroke-linejoin:round;stroke-miterlimit:1.5;">
    <g transform="matrix(1,0,0,1,-434.008,-96.6032)">
        <g id="Numbered-List" serif:id="Numbered List" transform="matrix(1,0,0,1,434.008,96.6032)">
            <rect x="0" y="0" width="64" height="64" style="fill:none;"/>
            <g transform="matrix(1.16249,0.00168099,0.00195411,1.25369,-251.878,-48.7852)">
                <path d="M266.999,47.044L233.839,47.088" style="fill:none;stroke:black;stroke-width:4.3px;"/>
            </g>
            <g transform="matrix(1.16249,0.00168099,0.00195411,1.25369,-251.476,-6.21777)">
                <path d="M266.999,47.044L233.839,47.088" style="fill:none;stroke:black;stroke-width:4.3px;"/>
            </g>
            <g transform="matrix(1.16249,0.00168099,0.00195411,1.25369,-251.677,-27.7023)">
                <path d="M266.999,47.044L233.839,47.088" style="fill:none;stroke:black;stroke-width:4.3px;"/>
            </g>
            <g transform="matrix(1,0,0,1,-431.131,-105.293)">
                <text x="432.691px" y="123.516px" style="font-family:'Avenir-Black', 'Avenir', sans-serif;font-weight:800;font-size:20.833px;">1</text>
            </g>
            <g transform="matrix(1,0,0,1,-431.525,-84.6908)">
                <text x="433.72px" y="123.516px" style="font-family:'Avenir-Black', 'Avenir', sans-serif;font-weight:800;font-size:20.833px;">2</text>
            </g>
            <g transform="matrix(1,0,0,1,-430.249,-62.8747)">
                <text x="432.691px" y="123.516px" style="font-family:'Avenir-Black', 'Avenir', sans-serif;font-weight:800;font-size:20.833px;">3</text>
            </g>
        </g>
    </g>
</svg>
